<svg width="64" height="64" viewBox="0 0 64 64" fill="none" xmlns="http://www.w3.org/2000/svg">
<path d="M0 32C0 49.6731 14.3269 64 32 64C49.6731 64 64 49.6731 64 32C64 14.3269 49.6731 0 32 0C14.3269 0 0 14.3269 0 32Z" fill="#2A2A7F"/>
<path d="M35.8673 17L25.3322 46.2495H28.5081L39.0431 17H35.8673V17ZM22.2502 21.2187L21.4297 21.7459L8.67986 29.9958L8 30.4293V32.023L8.63299 32.4801L21.3828 41.48L22.2502 42.0777V38.4099L12.1838 31.2966L22.2502 24.7811V21.2187ZM41.7498 21.2187V24.7811L51.8162 31.2966L41.7498 38.4099V42.0777L42.6172 41.48L55.367 32.4801L56 32.023V30.4293L55.3201 29.9958L42.5703 21.7459L41.7498 21.2187Z" fill="#FFC9B3"/>
</svg>
