<svg width="716" height="507" viewBox="0 0 716 507" fill="none" xmlns="http://www.w3.org/2000/svg">
<path d="M1.44434 125.774C17.097 264.9 79.6866 352.126 189.207 387.45C353.49 440.437 683.618 461.632 882.858 576.574C1082.09 691.515 1435.94 602.658 1391.33 405.383C1346.73 208.109 1295.93 -95.956 638.077 -95.956C199.503 -95.956 -12.7036 -22.0473 1.44655 125.774H1.44434Z" fill="#151A80"/>
<path d="M26.9352 117.599C34.2725 249.272 88.8216 331.824 190.576 365.257C343.211 415.405 654.514 435.464 836.903 544.249C1019.29 653.032 1358.95 568.935 1327.34 382.229C1295.72 195.522 1263.99 -92.253 641.379 -92.253C226.3 -92.253 21.4894 -22.3037 26.9373 117.599H26.9352Z" fill="#2A2A84"/>
<path d="M53.0736 109.424C53.2555 233.643 100.491 311.523 194.775 343.063C336.203 390.373 628.858 409.296 795.355 511.924C961.847 614.549 1286.59 535.212 1266.32 359.074C1246.06 182.936 1230.85 -88.55 643.479 -88.55C251.895 -88.55 55.0974 -22.5601 53.0756 109.424H53.0736Z" fill="#403A89"/>
<path d="M79.8014 101.248C73.8896 218.015 114.477 291.222 201.56 320.869C332.186 365.34 606.355 383.128 757.836 479.598C909.313 576.066 1218.46 501.49 1208.03 335.92C1197.6 170.35 1196.61 -84.847 644.477 -84.847C276.388 -84.847 88.1668 -22.8165 79.8033 101.248H79.8014Z" fill="#554A8E"/>
<path d="M107.074 93.0729C96.0469 202.386 130.601 270.92 210.73 298.675C330.926 340.308 586.759 356.961 724.033 447.273C861.304 537.583 1154.23 467.767 1152.25 312.765C1150.28 157.764 1161.35 -81.144 644.46 -81.144C299.866 -81.144 120.741 -23.0729 107.075 93.0729H107.074Z" fill="#6A5A92"/>
<path d="M134.853 84.8974C119.621 186.757 148.71 250.619 222.117 276.482C332.23 315.276 569.864 330.793 693.684 414.947C817.499 499.1 1093.61 434.044 1098.81 289.611C1104 145.178 1125.14 -77.441 643.501 -77.441C322.402 -77.441 152.856 -23.3293 134.855 84.8974H134.853Z" fill="#806A97"/>
<path d="M163.107 76.7219C144.519 171.129 168.678 230.317 235.578 254.288C335.932 290.243 555.497 304.625 666.563 382.622C777.626 460.617 1036.39 400.321 1047.54 266.456C1058.69 132.592 1088.06 -73.738 641.661 -73.738C344.057 -73.738 184.542 -23.5857 163.109 76.7219H163.107Z" fill="#95799C"/>
<path d="M191.806 68.5465C170.663 155.5 190.393 210.016 250.991 232.094C341.89 265.211 543.508 278.457 642.483 350.297C741.455 422.134 982.361 366.599 998.334 243.302C1014.31 120.005 1050.15 -70.035 638.989 -70.035C364.88 -70.035 215.822 -23.8421 191.807 68.5465H191.806Z" fill="#AA89A0"/>
<path d="M220.928 60.3711C197.991 139.872 213.768 189.715 268.257 209.9C349.991 240.178 533.778 252.29 621.289 317.971C708.798 383.651 931.359 332.876 951.077 220.147C970.794 107.419 1011.45 -66.332 635.53 -66.332C384.916 -66.332 246.718 -24.0985 220.93 60.3711H220.928Z" fill="#BF99A5"/>
<path d="M250.455 52.1958C226.45 124.243 238.73 169.413 287.293 187.706C360.138 215.146 526.205 226.122 602.853 285.646C679.499 345.169 883.251 299.153 905.684 196.993C928.116 94.8331 971.992 -62.629 631.317 -62.629C404.199 -62.629 277.247 -24.3548 250.457 52.1958H250.455Z" fill="#D5A9AA"/>
<path d="M280.37 44.0203C255.995 108.614 265.216 149.112 308.031 165.513C372.254 190.114 520.707 199.954 587.069 253.32C653.429 306.685 837.925 265.43 862.083 173.839C886.24 82.2468 931.811 -58.926 626.379 -58.926C422.755 -58.926 307.421 -24.6113 280.371 44.0203H280.37Z" fill="#EAB9AE"/>
<path d="M310.665 35.8449C286.598 92.9858 293.185 128.811 330.424 143.319C386.283 165.081 517.225 173.786 573.861 220.995C630.495 268.203 795.303 231.708 820.224 150.684C845.145 69.6606 890.931 -55.223 620.741 -55.223C440.612 -55.223 337.256 -24.8677 310.666 35.8449H310.665Z" fill="#FFC9B3"/>
</svg>
